<?xml version="1.0" standalone="no"?>
<!DOCTYPE svg PUBLIC "-//W3C//DTD SVG 20010904//EN"
 "http://www.w3.org/TR/2001/REC-SVG-20010904/DTD/svg10.dtd">
<svg version="1.0" xmlns="http://www.w3.org/2000/svg"
 width="4168.000000pt" height="4168.000000pt" viewBox="0 0 4168.000000 4168.000000"
 preserveAspectRatio="xMidYMid meet">
<metadata>
Created by potrace 1.11, written by Peter Selinger 2001-2013
</metadata>
<g transform="translate(0.000000,4168.000000) scale(0.100000,-0.100000)"
fill="#000000" stroke="none">
<path d="M11416 39389 c-613 -71 -1098 -529 -1222 -1154 -27 -133 -25 -377 4
-511 29 -134 65 -240 119 -348 25 -49 790 -1378 1702 -2955 912 -1576 2823
-4880 4246 -7341 1424 -2461 2625 -4541 2670 -4622 175 -313 298 -667 360
-1033 109 -650 10 -1345 -279 -1940 -34 -71 -1998 -3476 -4363 -7565 -2365
-4089 -4316 -7466 -4336 -7505 -243 -485 -174 -1076 177 -1512 193 -239 474
-410 801 -487 l90 -21 4670 -3 c4191 -2 4681 -1 4778 13 242 35 458 125 659
275 81 61 220 203 281 288 30 42 772 1317 1648 2832 876 1515 1641 2838 1700
2940 2469 4270 3980 6883 4082 7060 71 124 546 945 1056 1825 509 880 960
1668 1002 1750 484 945 487 2073 8 3028 -60 118 -9410 16290 -9478 16392 -62
94 -207 243 -309 320 -155 116 -360 209 -570 257 l-97 23 -4665 1 c-2566 1
-4696 -2 -4734 -7z m2439 -449 c-8 -16 -15 -52 -15 -81 0 -47 10 -71 109 -253
202 -374 383 -745 548 -1126 46 -107 91 -203 101 -213 74 -82 216 -70 278 23
56 85 38 146 -208 677 -134 291 -467 938 -510 991 -8 9 121 12 640 12 l650 0
605 -1047 c332 -577 634 -1109 671 -1183 36 -74 93 -173 127 -220 69 -95 950
-1610 943 -1622 -4 -7 -2130 -1810 -2163 -1835 -9 -6 -13 -14 -10 -18 11 -11
2733 -985 2738 -979 3 2 -105 608 -238 1345 -134 737 -241 1342 -239 1343 1 2
499 -854 1105 -1903 l1102 -1906 -30 -120 c-35 -144 -91 -474 -115 -679 -20
-164 -15 -217 28 -302 26 -54 98 -123 159 -155 66 -34 203 -39 281 -9 104 39
198 148 214 248 4 23 10 45 14 47 10 6 3076 -5297 3165 -5473 36 -73 100 -182
140 -242 56 -82 1166 -1989 1233 -2116 11 -21 10 -21 -27 -12 -74 19 -168 -28
-197 -99 -20 -47 -17 -117 6 -163 15 -29 38 -50 87 -79 85 -50 231 -111 348
-147 l90 -27 1330 -2299 c732 -1264 1334 -2309 1338 -2321 7 -17 -17 -75 -117
-280 -69 -142 -126 -261 -126 -263 0 -2 127 -4 283 -4 l282 -1 153 -265 153
-266 -846 -1463 -846 -1462 -50 -6 c-61 -7 -268 -107 -416 -201 -334 -210
-616 -496 -821 -832 -67 -109 -156 -291 -193 -393 -27 -75 -20 -86 -84 139
-59 209 -155 452 -254 645 -43 83 -400 707 -794 1389 l-717 1239 0 1106 c0
1217 1 1180 -62 1309 -61 124 -193 230 -333 267 -77 20 -207 19 -276 -1 -86
-25 -169 -74 -229 -135 -32 -32 -108 -139 -180 -252 -69 -108 -127 -196 -130
-196 -7 0 -912 1569 -914 1584 0 6 44 45 99 87 55 42 148 125 206 185 168 174
264 336 316 532 22 83 26 117 26 246 0 185 -18 260 -127 533 -91 226 -106 282
-106 387 0 225 98 373 400 605 223 172 328 289 406 453 61 129 78 212 78 387
0 139 -2 165 -27 254 -15 55 -44 141 -64 190 -111 281 -817 1712 -1112 2255
-74 138 -134 177 -230 151 -81 -21 -133 -89 -133 -171 0 -42 18 -83 154 -346
361 -694 649 -1275 890 -1791 154 -332 192 -467 169 -616 -29 -194 -104 -297
-365 -498 -172 -133 -326 -289 -390 -396 -93 -156 -146 -371 -132 -531 14
-149 41 -243 141 -486 74 -182 96 -267 97 -380 0 -97 -9 -144 -48 -244 -55
-139 -190 -303 -356 -432 l-77 -60 -15 23 c-14 22 -897 1548 -3283 5673 -608
1051 -1114 1926 -1125 1945 -12 19 179 -164 423 -407 244 -244 449 -443 454
-442 6 0 39 33 74 74 182 209 310 467 373 755 20 91 23 134 23 325 0 193 -3
233 -23 329 -140 655 -623 1137 -1277 1276 -130 28 -393 38 -532 20 -132 -16
-297 -60 -418 -110 -55 -23 -105 -43 -112 -43 -9 -2 -805 1356 -889 1515 l-14
27 277 208 c326 244 554 405 860 607 188 123 226 153 243 186 43 85 14 192
-65 238 -32 18 -52 22 -100 20 -57 -4 -68 -9 -205 -97 -315 -204 -746 -508
-1049 -741 -79 -61 -144 -110 -145 -108 -2 2 -955 1651 -2120 3665 -1472 2546
-2126 3686 -2146 3740 -42 117 -60 218 -60 343 0 276 95 498 299 700 112 111
168 149 301 207 173 75 112 72 1463 72 l1208 1 -16 -30z m7050 -3 c99 -31 218
-87 291 -138 81 -56 191 -168 248 -253 71 -105 9381 -16207 9446 -16337 138
-274 232 -574 282 -894 18 -117 22 -185 22 -410 1 -291 -5 -360 -55 -610 -27
-132 -138 -497 -157 -517 -4 -4 -860 1841 -1901 4100 -1042 2259 -1904 4121
-1917 4138 -48 65 -153 84 -228 41 -48 -27 -86 -94 -86 -150 0 -33 380 -865
1946 -4261 1071 -2322 1954 -4235 1962 -4252 l15 -32 -304 -526 c-167 -289
-307 -526 -310 -526 -4 0 -183 243 -398 540 -216 297 -396 542 -400 544 -4 3
-223 -433 -486 -969 -263 -536 -481 -975 -484 -975 -8 1 -2375 4096 -2379
4115 -3 11 6 15 31 15 134 0 511 124 586 193 32 29 61 94 61 136 0 57 -36 118
-88 148 -64 38 -117 35 -213 -10 -166 -78 -330 -117 -498 -117 l-96 0 -507
878 c-280 483 -508 883 -507 888 0 5 21 23 47 39 102 65 166 217 144 337 -18
99 -47 145 -157 253 -266 260 -408 483 -479 748 -35 132 -45 207 -61 493 -21
363 -47 505 -125 671 -133 285 -378 493 -720 614 -80 28 -109 34 -180 33 -94
0 -150 -19 -220 -74 l-38 -30 -20 32 c-31 51 -2198 3800 -2211 3827 -10 18
-10 34 -2 70 19 78 74 241 81 241 4 0 42 -27 84 -61 198 -156 601 -430 789
-536 212 -120 376 -173 536 -173 212 0 399 89 531 252 105 131 205 367 580
1368 217 577 203 536 204 625 0 67 -4 90 -27 140 -105 227 -400 283 -569 107
-25 -26 -53 -60 -62 -77 -9 -16 -77 -193 -151 -393 -209 -564 -423 -1118 -471
-1219 -23 -51 -49 -93 -56 -93 -70 0 -555 314 -903 585 -279 216 -363 258
-525 257 -159 -2 -279 -52 -396 -167 -39 -38 -79 -82 -90 -97 l-19 -28 -1320
2282 c-726 1254 -1323 2287 -1327 2294 -6 9 18 12 110 12 135 0 249 19 372 61
487 164 860 612 951 1139 30 178 25 228 -29 286 -50 53 -128 70 -195 42 -43
-18 -95 -78 -101 -118 -3 -18 -13 -77 -22 -131 -68 -423 -358 -770 -744 -892
-114 -36 -266 -45 -372 -21 -83 18 -223 82 -249 112 -9 11 -111 183 -226 384
l-211 365 -5 78 c-7 101 -35 148 -109 182 l-50 23 -389 673 c-214 370 -401
692 -415 716 l-25 43 2438 -2 2438 -3 90 -28z m2548 -12909 c41 -51 72 -110
82 -158 4 -19 5 -33 2 -30 -16 16 -135 230 -127 230 5 0 24 -19 43 -42z
m-3026 -6145 c354 -612 643 -1117 643 -1122 0 -5 -7 -15 -17 -22 -24 -21 -53
-89 -53 -129 0 -115 117 -200 230 -168 25 7 40 -18 540 -883 283 -490 514
-894 513 -898 -1 -4 -642 -993 -1425 -2197 -1030 -1585 -1429 -2207 -1446
-2254 -104 -285 66 -607 363 -686 37 -10 135 -14 373 -14 177 0 322 -2 322 -4
0 -2 -852 -1477 -1893 -3278 -1042 -1800 -1915 -3311 -1942 -3357 l-49 -84
-30 35 c-17 20 -92 105 -166 189 -674 764 -1259 1595 -1764 2504 -302 543
-645 1283 -845 1820 l-52 140 2777 4800 c1527 2640 2814 4872 2859 4960 157
308 270 638 334 980 40 208 52 331 58 574 4 176 9 238 16 225 6 -11 300 -520
654 -1131z m2821 -3374 l2 -654 -121 210 c-67 116 -161 277 -209 359 l-87 150
195 298 c107 164 200 297 206 295 8 -3 12 -185 14 -658z m5811 -109 c-17 -27
-32 -50 -34 -50 -4 0 -55 90 -55 96 0 2 27 4 60 4 l60 0 -31 -50z m-6335 -489
c81 -139 145 -257 144 -261 -2 -5 -475 -825 -1053 -1824 l-1050 -1816 -435 3
c-428 2 -435 2 -434 22 1 18 2673 4140 2679 4133 1 -2 68 -117 149 -257z m464
-801 l62 -110 0 -1490 c0 -1183 -3 -1492 -12 -1495 -7 -3 -455 -4 -996 -3
l-983 3 927 1603 c510 881 930 1602 933 1602 3 0 34 -50 69 -110z m1125 -1945
c283 -489 535 -928 560 -975 91 -170 182 -397 242 -601 196 -675 160 -1441
-97 -2089 -17 -41 -34 -86 -39 -98 -9 -23 -10 -23 -53 21 -24 25 -68 58 -97
74 -49 26 -63 28 -159 28 -96 0 -110 -3 -158 -28 -73 -38 -128 -97 -164 -173
-28 -59 -30 -71 -26 -157 2 -73 8 -102 28 -142 49 -100 152 -177 259 -194 28
-4 54 -11 57 -14 3 -3 -632 -1108 -1412 -2456 l-1417 -2451 -28 48 c-35 62
-97 117 -168 151 -52 24 -65 26 -191 25 -487 -4 -994 -175 -1434 -483 -215
-149 -252 -206 -244 -370 7 -146 74 -252 197 -310 47 -22 70 -26 141 -26 104
1 161 24 291 120 241 180 520 296 834 345 69 11 325 28 325 22 0 -2 -28 -51
-62 -109 -141 -238 -358 -408 -603 -473 -127 -33 -247 -39 -800 -40 l-521 0
-43 44 c-24 25 -71 57 -105 73 -52 24 -74 28 -146 28 -103 0 -171 -28 -248
-99 l-49 -46 -778 0 -779 0 192 187 c211 207 236 243 248 362 8 76 -16 174
-56 230 -16 21 -117 119 -226 217 -180 162 -617 576 -671 635 l-21 24 449 775
c247 426 450 779 452 784 1 5 1022 -206 2267 -468 1246 -263 2273 -478 2284
-479 15 -2 85 167 457 1103 242 608 442 1116 445 1129 6 19 4 22 -12 18 -44
-14 -5357 -1177 -5360 -1174 -2 2 441 771 984 1710 l987 1707 7 -61 c13 -111
43 -155 247 -363 102 -103 257 -254 344 -334 l157 -145 -167 -123 c-219 -160
-248 -186 -283 -247 -101 -177 -30 -402 156 -493 52 -25 70 -29 149 -29 71 0
100 5 137 22 46 21 289 195 471 337 l97 76 73 -53 c190 -140 423 -284 607
-375 107 -52 120 -56 200 -60 109 -5 177 19 253 88 79 72 112 149 112 260 0
76 -4 93 -33 152 -41 83 -88 126 -204 184 -129 64 -213 113 -355 207 l-122 80
59 64 c132 141 300 368 348 469 23 50 27 72 27 144 -1 70 -5 95 -27 142 -73
157 -246 239 -413 193 -105 -28 -156 -71 -253 -217 -72 -107 -274 -348 -292
-348 -14 0 -260 229 -500 465 -285 281 -298 289 -440 290 -71 0 -94 -4 -141
-26 l-56 -27 111 193 c61 106 278 481 481 833 l370 641 499 1 c443 0 497 -2
492 -15 -3 -9 -11 -44 -17 -80 -31 -163 77 -340 239 -390 79 -25 191 -18 263
17 70 35 132 97 167 168 34 69 42 185 19 255 l-16 45 353 0 c293 0 361 3 407
16 191 56 334 209 374 401 12 57 15 245 15 1128 0 1043 1 1060 19 1030 11 -16
251 -430 534 -920z m2450 -737 c-11 -18 -257 -445 -548 -948 -290 -503 -532
-919 -537 -924 -4 -6 -8 67 -8 161 l0 171 31 6 c42 8 86 41 106 79 9 18 27 82
39 142 86 403 284 766 578 1061 105 105 325 284 349 284 5 0 0 -15 -10 -32z
m-13434 -3865 c210 -505 562 -1204 861 -1713 550 -935 1175 -1777 1923 -2590
54 -58 97 -109 97 -114 0 -5 -172 -308 -382 -672 l-383 -663 -890 1 c-489 0
-879 2 -865 4 14 2 59 9 100 15 256 36 567 157 798 309 332 218 606 539 769
900 46 100 48 109 48 195 0 79 -3 97 -29 150 -88 179 -295 250 -475 163 -76
-37 -125 -96 -185 -221 -176 -367 -468 -632 -826 -751 -477 -157 -974 -32
-1390 350 -101 92 -161 119 -270 119 -76 0 -93 -4 -152 -33 -153 -75 -230
-246 -183 -407 22 -76 55 -124 148 -212 309 -293 746 -507 1157 -567 87 -13
38 -14 -566 -15 l-661 -1 -76 88 c-345 404 -729 653 -1172 761 -49 13 -98 25
-109 28 -17 5 -18 15 -13 147 5 156 30 262 88 379 33 65 2582 4477 2585 4474
1 -1 25 -57 53 -124z m3559 -5080 l107 -102 -285 -285 -285 -286 -243 0 c-136
0 -242 4 -240 9 2 5 133 234 292 509 l290 501 128 -122 c71 -67 177 -168 236
-224z m-5803 -528 l20 -16 -20 10 c-11 5 -29 17 -40 26 l-20 16 20 -10 c11 -5
29 -17 40 -26z"/>
<path d="M13048 37591 c-55 -18 -85 -45 -143 -129 -121 -175 -343 -370 -528
-463 -186 -95 -452 -159 -653 -159 -69 0 -129 -32 -160 -86 -49 -84 -18 -206
64 -248 46 -23 94 -26 222 -16 402 32 767 186 1065 448 151 132 336 369 351
448 23 124 -102 242 -218 205z"/>
<path d="M13990 34726 l0 -1465 203 117 c1862 1075 2322 1342 2321 1348 -1 6
-2270 1322 -2506 1455 -17 9 -18 -63 -18 -1455z"/>
<path d="M14637 32029 c-94 -22 -192 -102 -237 -194 -22 -43 -25 -64 -25 -155
0 -96 2 -110 28 -158 151 -287 569 -250 661 58 78 263 -159 512 -427 449z"/>
<path d="M18023 30079 c-71 -28 -155 -106 -190 -177 -25 -50 -28 -68 -28 -152
0 -84 3 -102 28 -152 111 -227 410 -273 578 -90 67 71 94 141 94 242 0 77 -3
92 -33 152 -36 75 -95 133 -170 169 -68 33 -207 37 -279 8z"/>
<path d="M21443 28060 c-33 -20 -43 -32 -136 -175 -64 -99 -197 -240 -297
-314 -136 -101 -308 -178 -490 -217 -66 -14 -129 -19 -280 -19 -212 0 -217 -1
-268 -59 -75 -86 -44 -216 64 -271 35 -18 58 -20 249 -20 178 1 225 4 311 23
151 33 246 66 389 137 279 138 485 328 660 609 54 87 68 134 55 190 -11 48
-36 83 -80 114 -44 29 -131 31 -177 2z"/>
<path d="M19912 24783 c-52 -25 -85 -76 -90 -138 -6 -75 0 -93 59 -166 208
-257 377 -619 443 -949 93 -463 38 -904 -170 -1367 -35 -77 -64 -153 -64 -167
0 -35 26 -95 53 -124 34 -37 71 -52 127 -52 95 0 137 39 208 190 377 801 319
1719 -154 2466 -85 135 -205 284 -244 304 -48 24 -122 26 -168 3z"/>
<path d="M24513 20616 c-96 -31 -187 -119 -223 -214 -28 -74 -25 -202 7 -274
30 -66 102 -139 170 -174 52 -26 68 -29 153 -29 82 0 103 4 151 26 79 37 133
90 171 167 30 60 33 75 33 157 0 76 -4 98 -26 146 -36 77 -87 130 -161 169
-55 30 -74 34 -148 37 -52 2 -101 -2 -127 -11z"/>
<path d="M26280 19183 c-61 -22 -82 -41 -142 -126 -270 -383 -654 -593 -1138
-623 -83 -5 -113 -11 -145 -29 -113 -65 -113 -237 0 -303 38 -22 46 -23 195
-18 178 6 294 27 474 87 302 100 594 296 789 528 132 158 187 248 187 308 0
44 -28 110 -56 135 -43 37 -120 57 -164 41z"/>
<path d="M26392 16993 c-47 -23 -77 -67 -123 -179 -249 -609 -196 -1281 142
-1826 108 -175 279 -371 434 -498 99 -81 126 -93 196 -88 98 7 159 74 159 173
0 65 -28 110 -106 170 -82 63 -234 219 -301 309 -161 217 -265 467 -308 742
-23 147 -16 424 15 568 24 115 81 289 116 359 56 109 36 212 -50 262 -51 30
-124 33 -174 8z"/>
<path d="M24844 14580 c-102 -20 -200 -96 -251 -192 -26 -48 -28 -62 -28 -158
0 -91 3 -112 25 -155 33 -68 108 -141 178 -173 72 -33 188 -37 270 -8 71 24
163 109 197 182 100 212 -28 460 -260 503 -65 12 -73 12 -131 1z"/>
<path d="M17503 38812 c-100 -36 -171 -101 -215 -199 -34 -73 -32 -208 3 -283
37 -78 87 -131 161 -171 60 -32 68 -34 163 -34 117 0 165 17 240 86 84 77 115
150 116 265 0 135 -77 261 -198 320 -74 37 -193 44 -270 16z"/>
<path d="M21012 38120 c-103 -22 -202 -104 -250 -208 -22 -47 -27 -71 -27
-142 0 -76 3 -92 32 -151 39 -79 102 -141 181 -177 46 -21 72 -26 137 -26 111
1 179 28 255 104 74 74 103 144 103 250 0 106 -29 176 -103 250 -86 86 -212
124 -328 100z"/>
<path d="M21290 35459 c-19 -12 -42 -31 -50 -42 -141 -189 -251 -445 -302
-699 -29 -149 -32 -451 -5 -598 50 -272 160 -528 318 -742 53 -70 93 -101 146
-113 80 -17 183 51 204 135 16 64 1 108 -75 214 -108 151 -192 340 -232 526
-26 119 -26 410 -1 528 38 174 108 342 206 496 28 44 53 94 57 111 13 71 -37
164 -103 191 -49 21 -122 18 -163 -7z"/>
<path d="M19241 35064 c-94 -34 -161 -94 -208 -184 -25 -50 -28 -65 -28 -155
0 -95 2 -103 34 -163 41 -75 94 -125 170 -161 47 -22 70 -26 146 -26 77 0 98
4 147 27 73 34 142 103 176 176 23 49 27 70 27 147 0 76 -4 99 -26 146 -36 77
-87 130 -161 169 -55 30 -74 34 -148 37 -60 2 -98 -2 -129 -13z"/>
<path d="M23845 31007 c-109 -37 -186 -103 -232 -202 -24 -51 -28 -72 -28
-145 1 -70 5 -95 27 -141 35 -76 85 -129 160 -170 60 -32 68 -34 163 -34 87 0
107 3 156 26 273 128 267 520 -9 647 -67 30 -176 39 -237 19z"/>
<path d="M25393 27098 c-256 -268 -431 -646 -484 -1043 -17 -133 -6 -463 20
-589 120 -579 479 -1048 996 -1302 557 -273 1234 -249 1763 62 110 65 270 185
332 248 l45 46 -1310 1310 c-721 721 -1312 1310 -1315 1310 -3 0 -24 -19 -47
-42z"/>
<path d="M28155 22613 c-199 -72 -296 -292 -211 -479 101 -221 378 -281 562
-121 22 20 56 64 75 99 32 60 34 68 34 163 0 91 -3 105 -30 158 -34 68 -103
134 -172 167 -67 31 -190 37 -258 13z"/>
<path d="M28061 20559 c-96 -43 -290 -229 -389 -371 -59 -86 -141 -246 -167
-326 -34 -106 -5 -220 78 -302 59 -59 109 -82 193 -88 62 -4 79 -1 133 23 76
35 139 102 171 182 50 125 99 194 221 313 148 144 164 173 164 296 0 83 -2 94
-30 140 -79 127 -252 189 -374 133z"/>
<path d="M19885 18261 c-67 -41 -103 -112 -90 -179 4 -20 47 -110 96 -199 191
-347 400 -775 564 -1158 43 -99 89 -193 104 -209 106 -116 301 -39 301 118 0
99 -346 849 -640 1386 -105 191 -126 222 -172 246 -39 20 -127 18 -163 -5z"/>
<path d="M18669 17232 c-123 -41 -189 -117 -318 -362 -140 -268 -220 -518
-273 -855 -19 -125 -16 -505 5 -645 59 -381 187 -717 393 -1026 45 -69 90
-124 116 -143 145 -107 352 -91 469 37 67 72 94 142 94 242 0 97 -17 141 -99
265 -143 215 -245 493 -277 758 -17 140 -7 404 20 541 43 211 128 423 260 646
80 135 89 237 31 357 -75 156 -261 238 -421 185z"/>
<path d="M19635 15747 c-101 -27 -175 -85 -226 -179 -32 -60 -34 -68 -34 -163
0 -82 4 -109 22 -147 30 -66 105 -143 172 -175 49 -25 68 -28 151 -28 85 0
101 3 155 29 271 134 266 516 -10 642 -65 30 -161 38 -230 21z"/>
<path d="M16352 13319 c-83 -42 -117 -151 -72 -239 30 -59 69 -81 163 -91 440
-50 719 -138 1032 -328 85 -52 107 -61 148 -61 88 0 155 48 177 129 23 85 -13
154 -114 219 -305 196 -695 333 -1074 377 -169 20 -209 19 -260 -6z"/>
<path d="M17395 11916 c-112 -52 -412 -248 -574 -374 -59 -46 -89 -77 -102
-106 -47 -104 6 -217 117 -248 65 -18 106 -2 221 84 139 104 260 186 398 268
144 85 149 89 174 130 25 41 29 126 7 168 -19 37 -55 68 -98 87 -51 21 -84 19
-143 -9z"/>
<path d="M15933 9671 c-174 -60 -273 -238 -229 -409 26 -104 135 -366 232
-562 339 -682 797 -1066 1529 -1282 90 -26 128 -33 205 -33 89 0 99 2 158 34
107 58 174 155 188 272 19 165 -93 330 -255 375 -285 78 -476 158 -640 268
-299 200 -495 480 -696 994 -80 202 -106 247 -178 296 -96 66 -210 83 -314 47z"/>
<path d="M12624 6560 c-93 -30 -148 -85 -213 -211 -187 -364 -433 -620 -780
-811 -182 -101 -239 -165 -260 -297 -26 -164 50 -311 198 -379 46 -22 71 -26
141 -27 98 0 139 13 275 88 216 118 391 251 580 441 199 200 350 410 466 650
50 103 53 114 57 200 3 75 0 101 -18 148 -28 76 -96 150 -167 184 -78 37 -193
42 -279 14z"/>
<path d="M14083 5766 c-96 -31 -187 -119 -223 -214 -30 -78 -25 -204 10 -277
33 -67 108 -141 178 -173 47 -21 72 -26 142 -26 77 -1 92 2 152 32 130 64 201
178 201 324 0 64 -5 87 -31 141 -59 127 -166 199 -306 204 -50 2 -97 -2 -123
-11z"/>
</g>
</svg>
